<mxfile host="app.diagrams.net" modified="2023-11-24T00:51:43.355Z" agent="Mozilla/5.0 (Windows NT 10.0; Win64; x64) AppleWebKit/537.36 (KHTML, like Gecko) Chrome/119.0.0.0 Safari/537.36" etag="vSTOyDP0HlUXhQX4mhvX" version="22.1.3" type="github">
  <diagram id="prtHgNgQTEPvFCAcTncT" name="Page-1">
    <mxGraphModel dx="842" dy="530" grid="1" gridSize="10" guides="1" tooltips="1" connect="1" arrows="1" fold="1" page="1" pageScale="1" pageWidth="827" pageHeight="1169" math="0" shadow="0">
      <root>
        <mxCell id="0" />
        <mxCell id="1" parent="0" />
        <mxCell id="8YJABKJcVPTWwcj3VZ7k-2" value="Page title" style="swimlane;whiteSpace=wrap;html=1;" vertex="1" parent="1">
          <mxGeometry x="50" y="20" width="750" height="370" as="geometry" />
        </mxCell>
        <mxCell id="8YJABKJcVPTWwcj3VZ7k-3" value="Contents&lt;span style=&quot;white-space: pre;&quot;&gt;&#x9;&lt;/span&gt;" style="swimlane;fontStyle=0;childLayout=stackLayout;horizontal=1;startSize=30;horizontalStack=0;resizeParent=1;resizeParentMax=0;resizeLast=0;collapsible=1;marginBottom=0;whiteSpace=wrap;html=1;" vertex="1" parent="8YJABKJcVPTWwcj3VZ7k-2">
          <mxGeometry x="20" y="50" width="160" height="150" as="geometry" />
        </mxCell>
        <mxCell id="8YJABKJcVPTWwcj3VZ7k-4" value="Projects" style="text;strokeColor=none;fillColor=none;align=left;verticalAlign=middle;spacingLeft=4;spacingRight=4;overflow=hidden;points=[[0,0.5],[1,0.5]];portConstraint=eastwest;rotatable=0;whiteSpace=wrap;html=1;" vertex="1" parent="8YJABKJcVPTWwcj3VZ7k-3">
          <mxGeometry y="30" width="160" height="30" as="geometry" />
        </mxCell>
        <mxCell id="8YJABKJcVPTWwcj3VZ7k-5" value="Science" style="text;strokeColor=none;fillColor=none;align=left;verticalAlign=middle;spacingLeft=4;spacingRight=4;overflow=hidden;points=[[0,0.5],[1,0.5]];portConstraint=eastwest;rotatable=0;whiteSpace=wrap;html=1;" vertex="1" parent="8YJABKJcVPTWwcj3VZ7k-3">
          <mxGeometry y="60" width="160" height="30" as="geometry" />
        </mxCell>
        <mxCell id="8YJABKJcVPTWwcj3VZ7k-6" value="Links" style="text;strokeColor=none;fillColor=none;align=left;verticalAlign=middle;spacingLeft=4;spacingRight=4;overflow=hidden;points=[[0,0.5],[1,0.5]];portConstraint=eastwest;rotatable=0;whiteSpace=wrap;html=1;" vertex="1" parent="8YJABKJcVPTWwcj3VZ7k-3">
          <mxGeometry y="90" width="160" height="30" as="geometry" />
        </mxCell>
        <mxCell id="8YJABKJcVPTWwcj3VZ7k-9" value="Contact" style="text;strokeColor=none;fillColor=none;align=left;verticalAlign=middle;spacingLeft=4;spacingRight=4;overflow=hidden;points=[[0,0.5],[1,0.5]];portConstraint=eastwest;rotatable=0;whiteSpace=wrap;html=1;" vertex="1" parent="8YJABKJcVPTWwcj3VZ7k-3">
          <mxGeometry y="120" width="160" height="30" as="geometry" />
        </mxCell>
        <mxCell id="8YJABKJcVPTWwcj3VZ7k-7" value="Display selected content" style="swimlane;whiteSpace=wrap;html=1;" vertex="1" parent="1">
          <mxGeometry x="310" y="70" width="270" height="290" as="geometry" />
        </mxCell>
        <mxCell id="8YJABKJcVPTWwcj3VZ7k-8" value="Heading&lt;br&gt;&lt;br&gt;paragraphs&lt;br&gt;&lt;br&gt;images" style="text;html=1;align=center;verticalAlign=middle;resizable=0;points=[];autosize=1;strokeColor=none;fillColor=none;" vertex="1" parent="8YJABKJcVPTWwcj3VZ7k-7">
          <mxGeometry x="75" y="90" width="80" height="90" as="geometry" />
        </mxCell>
      </root>
    </mxGraphModel>
  </diagram>
</mxfile>
